<svg viewBox="0 0 20 20" xmlns="http://www.w3.org/2000/svg">
<path d="M3.67019 1.66602C2.5632 1.66602 1.66717 2.56519 1.66699 3.67157C1.66699 4.77903 2.56302 5.67802 3.67037 5.67802C4.77468 5.67802 5.67194 4.77903 5.67194 3.67157C5.67194 2.56501 4.7745 1.66602 3.67019 1.66602Z" />
<path d="M5.39655 7.20005H1.94234V18.3328H5.39655V7.20005Z" />
<path d="M14.1902 6.92307C12.51 6.92307 11.3833 7.84593 10.9221 8.72106H10.8759V7.19989H7.56296L7.56278 18.3324H11.014V12.8251C11.014 11.3732 11.29 9.96684 13.087 9.96684C14.8583 9.96684 14.8819 11.6274 14.8819 12.9182V18.3322H18.3336V12.2261C18.3336 9.22877 17.688 6.92307 14.1902 6.92307Z" />
</svg>